<svg width="29.25rem" height="29.625rem" viewBox="0 0 466 474" fill="none" xmlns="http://www.w3.org/2000/svg">
<g clip-path="url(#clip0_194_292)">
<path d="M468.41 19.34V474.34H13.4101C13.4101 474.34 -122.09 -112.66 468.41 19.34Z" fill="#F6AF5B"/>
<path d="M447.873 187.601L177.873 187.13L177.402 457.129L447.401 457.601L447.873 187.601Z" fill="#1F9A00"/>
<path d="M408.88 187.5C408.84 209.04 426.28 226.53 447.81 226.57L447.88 187.57L408.88 187.5Z" fill="#F6AF5B" stroke="#F6AF5B" stroke-miterlimit="10"/>
<path d="M216.43 457.18C216.47 435.64 199.03 418.15 177.5 418.11L177.43 457.11L216.43 457.18Z" fill="#F6AF5B" stroke="#F6AF5B" stroke-miterlimit="10"/>
<path d="M177.82 226.11C199.36 226.15 216.85 208.71 216.89 187.18L177.89 187.11L177.82 226.11Z" fill="#F6AF5B" stroke="#F6AF5B" stroke-miterlimit="10"/>
<path d="M319.41 355.34C335.703 355.34 348.91 342.132 348.91 325.84C348.91 309.547 335.703 296.34 319.41 296.34C303.118 296.34 289.91 309.547 289.91 325.84C289.91 342.132 303.118 355.34 319.41 355.34Z" fill="#F6AF5B"/>
<path d="M457.91 515.14C484.42 515.14 505.91 493.65 505.91 467.14C505.91 440.63 484.42 419.14 457.91 419.14C431.4 419.14 409.91 440.63 409.91 467.14C409.91 493.65 431.4 515.14 457.91 515.14Z" fill="#F6AF5B"/>
<path d="M443.9 462.1L449.23 467.44L457.73 466.85L458.31 458.36L452.97 453.02L443.9 462.1Z" fill="white"/>
<path d="M459.601 432.719L448.387 443.934L471.346 466.893L482.561 455.679L459.601 432.719Z" stroke="white" stroke-width="2" stroke-miterlimit="10"/>
<path d="M434.802 457.522L423.587 468.736L446.547 491.696L457.761 480.481L434.802 457.522Z" stroke="white" stroke-width="2" stroke-miterlimit="10"/>
<path d="M454.91 164.84H436.91V182.84H454.91V164.84Z" fill="white"/>
<path d="M175.91 446.34H157.91V464.34H175.91V446.34Z" fill="white"/>
<path d="M175.91 164.84H157.91V182.84H175.91V164.84Z" fill="white"/>
</g>
<defs>
<clipPath id="clip0_194_292">
<rect width="505.91" height="515.14" fill="white"/>
</clipPath>
</defs>
</svg>
