<svg width="28" height="28" viewBox="0 0 28 28" fill="none" xmlns="http://www.w3.org/2000/svg">
<g clip-path="url(#clip0_278_814)">
<path d="M14 25C20.0751 25 25 20.0751 25 14C25 7.92487 20.0751 3 14 3C7.92487 3 3 7.92487 3 14C3 20.0751 7.92487 25 14 25Z" stroke="black" stroke-width="1.2"/>
<path d="M14 22.5C18.6944 22.5 22.5 18.6944 22.5 14C22.5 9.30558 18.6944 5.5 14 5.5C9.30558 5.5 5.5 9.30558 5.5 14C5.5 18.6944 9.30558 22.5 14 22.5Z" fill="white" stroke="black" stroke-width="1.2"/>
<path d="M0 14H28" stroke="black" stroke-width="1.2"/>
<path d="M14 0V28" stroke="black" stroke-width="1.2"/>
</g>
<defs>
<clipPath id="clip0_278_814">
<rect width="28" height="28" fill="white"/>
</clipPath>
</defs>
</svg>
