<svg width="current" height="current" viewBox="0 0 40 40" fill="none" xmlns="http://www.w3.org/2000/svg">
<g clip-path="url(#clip0_278_3339)">
<path d="M29.9492 19C29.9792 19.33 29.9992 19.66 29.9992 20C29.9992 20.34 29.9792 20.67 29.9492 21H39.9992V19H29.9492Z" fill="#FFB800"/>
<path d="M20 10C20.34 10 20.67 10.02 21 10.05V0H19V10.05C19.33 10.02 19.66 10 20 10Z" fill="#FFB800"/>
<path d="M10 20C10 19.66 10.02 19.33 10.05 19H0V21H10.05C10.02 20.67 10 20.34 10 20Z" fill="#FFB800"/>
<path d="M27.7401 13.6699L34.8501 6.5599L33.4401 5.1499L26.3301 12.2599C26.8501 12.6799 27.3201 13.1599 27.7401 13.6699Z" fill="#FFB800"/>
<path d="M13.6704 12.2599L6.56039 5.1499L5.15039 6.5599L12.2604 13.6699C12.6804 13.1499 13.1604 12.6799 13.6704 12.2599Z" fill="#FFB800"/>
<path d="M26.3301 27.7401L33.4401 34.8501L34.8501 33.4401L27.7401 26.3301C27.3201 26.8501 26.8401 27.3201 26.3301 27.7401Z" fill="#FFB800"/>
<path d="M12.2604 26.3301L5.15039 33.4401L6.56039 34.8501L13.6704 27.7401C13.1504 27.3201 12.6804 26.8401 12.2604 26.3301Z" fill="#FFB800"/>
<path d="M20 30.0002C19.66 30.0002 19.33 29.9802 19 29.9502V40.0002H21V29.9502C20.67 29.9802 20.34 30.0002 20 30.0002Z" fill="#FFB800"/>
</g>
<defs>
<clipPath id="clip0_278_3339">
<rect width="40" height="40" fill="white"/>
</clipPath>
</defs>
</svg>
