<svg width="29.25rem" height="29.625rem" viewBox="0 0 468 474" fill="none" xmlns="http://www.w3.org/2000/svg">
<g clip-path="url(#clip0_244_3092)">
<path d="M469.41 421.3V20.34C-121.09 -111.66 14.4101 475.34 14.4101 475.34H411.45C414.92 498.43 434.85 516.14 458.91 516.14C485.42 516.14 506.91 494.65 506.91 468.14C506.91 445.24 490.87 426.1 469.41 421.31V421.3Z" fill="#E98943" stroke="black" stroke-width="2"/>
<path d="M217.63 185.48C217.59 207.02 200.1 224.45 178.56 224.41L178.24 416.41C199.78 416.45 217.21 433.94 217.17 455.48L411.61 455.8C415.38 437.28 429.82 422.65 448.23 418.58L448.55 224.86C427.01 224.82 409.58 207.33 409.62 185.79C409.62 185.79 218.79 186.64 217.62 185.47L217.63 185.48ZM320.2 294.64C336.49 294.67 349.68 307.9 349.65 324.19C349.62 340.48 336.39 353.67 320.1 353.64C303.81 353.61 290.62 340.38 290.65 324.09C290.68 307.8 303.91 294.61 320.2 294.64Z" fill="#00EF74" stroke="black" stroke-width="2" stroke-miterlimit="10"/>
<path d="M444.9 463.1L450.23 468.44L458.73 467.85L459.31 459.36L453.97 454.02L444.9 463.1Z" fill="white"/>
<path d="M460.605 433.719L449.391 444.934L472.35 467.893L483.565 456.679L460.605 433.719Z" stroke="white" stroke-width="2" stroke-miterlimit="10"/>
<path d="M435.806 458.522L424.592 469.736L447.552 492.696L458.766 481.481L435.806 458.522Z" stroke="white" stroke-width="2" stroke-miterlimit="10"/>
<path d="M455.91 165.84H437.91V183.84H455.91V165.84Z" fill="white"/>
<path d="M176.91 447.34H158.91V465.34H176.91V447.34Z" fill="white"/>
<path d="M176.91 165.84H158.91V183.84H176.91V165.84Z" fill="white"/>
</g>
<defs>
<clipPath id="clip0_244_3092">
<rect width="507.91" height="517.14" fill="white"/>
</clipPath>
</defs>
</svg>
