<svg width="current" height="current" viewBox="0 0 230 230" fill="none" xmlns="http://www.w3.org/2000/svg">
<g clip-path="url(#clip0_244_3119)">
<path d="M82.2995 69.5704L39.9195 27.1904L27.1895 39.9204L69.5695 82.3004C73.0895 77.4004 77.3895 73.0904 82.2995 69.5704Z" fill="#FFEA2B"/>
<path d="M114.551 59.19C117.621 59.19 120.621 59.45 123.551 59.93V0H105.551V59.93C108.481 59.45 111.481 59.19 114.551 59.19Z" fill="#FFEA2B"/>
<path d="M59.19 114.55C59.19 111.48 59.45 108.48 59.93 105.55H0V123.55H59.93C59.45 120.62 59.19 117.62 59.19 114.55Z" fill="#FFEA2B"/>
<path d="M159.531 82.3004L201.911 39.9204L189.181 27.1904L146.801 69.5704C151.701 73.0904 156.011 77.3904 159.531 82.3004Z" fill="#FFEA2B"/>
<path d="M114.551 169.91C111.481 169.91 108.481 169.65 105.551 169.17V229.1H123.551V169.17C120.621 169.65 117.621 169.91 114.551 169.91Z" fill="#FFEA2B"/>
<path d="M146.811 159.53L189.191 201.91L201.921 189.18L159.541 146.8C156.021 151.7 151.721 156.01 146.811 159.53Z" fill="#FFEA2B"/>
<path d="M69.5695 146.8L27.1895 189.18L39.9195 201.91L82.2995 159.53C77.3995 156.01 73.0895 151.71 69.5695 146.8Z" fill="#FFEA2B"/>
<path d="M169.17 105.55C169.65 108.48 169.91 111.48 169.91 114.55C169.91 117.62 169.65 120.62 169.17 123.55H229.1V105.55H169.17Z" fill="#FFEA2B"/>
</g>
<defs>
<clipPath id="clip0_244_3119">
<rect width="229.1" height="229.1" fill="white"/>
</clipPath>
</defs>
</svg>
